<?xml version="1.0" encoding="UTF-8"?>
<svg xmlns="http://www.w3.org/2000/svg" width="48" height="48" viewBox="0 0 48 48" fill="none">
  <rect width="48" height="48" rx="24" fill="white"></rect>
  <path fill-rule="evenodd" clip-rule="evenodd" d="M21 24C24.3137 24 27 21.3137 27 18C27 14.6863 24.3137 12 21 12C17.6863 12 15 14.6863 15 18C15.0033 21.3123 17.6877 23.9967 21 24ZM21 14C23.2091 14 25 15.7909 25 18C25 20.2091 23.2091 22 21 22C18.7909 22 17 20.2091 17 18C17 15.7909 18.7909 14 21 14ZM21 26C16.0319 26.0061 12.0061 30.0319 12 35C12 35.5523 12.4477 36 13 36C13.5523 36 14 35.5523 14 35C14 31.134 17.134 28 21 28C24.866 28 28 31.134 28 35C28 35.5523 28.4477 36 29 36C29.5523 36 30 35.5523 30 35C29.9939 30.0319 25.9681 26.0061 21 26ZM32 21.8808C32.049 20.8082 32.9067 19.9295 34 19.875C35.1586 19.9327 36.0526 20.9161 36 22.075C36 23.805 33.744 25.834 32.62 26.734C32.2576 27.0242 31.7424 27.0242 31.38 26.734C30.256 25.832 28 23.805 28 22.075C27.9474 20.9161 28.8414 19.9327 30 19.875C31.0933 19.9295 31.951 20.8082 32 21.8808ZM32 21.8808C31.9971 21.9449 31.997 22.0097 32 22.075C32.003 22.0097 32.0029 21.9449 32 21.8808Z" fill="#60B9F8"></path>
</svg>
