<?xml version="1.0" encoding="UTF-8"?>
<svg xmlns="http://www.w3.org/2000/svg" width="48" height="48" viewBox="0 0 48 48" fill="none">
  <rect width="48" height="48" rx="24" fill="white"></rect>
  <path fill-rule="evenodd" clip-rule="evenodd" d="M35.836 20.794C35.416 19.4571 34.1702 18.5529 32.769 18.568H28.4L27.073 14.432C26.6448 13.0961 25.4028 12.1899 24 12.1899C22.5973 12.1899 21.3552 13.0961 20.927 14.432L19.6 18.568H15.231C13.8356 18.5699 12.5996 19.4686 12.1673 20.7953C11.7351 22.1221 12.2046 23.5764 13.331 24.4L16.887 27L15.535 31.187C15.0863 32.5206 15.568 33.9905 16.719 34.8C17.8503 35.6353 19.3961 35.6276 20.519 34.781L24 32.219L27.482 34.778C28.6101 35.6077 30.1446 35.6152 31.2808 34.7965C32.4169 33.9777 32.8953 32.5196 32.465 31.187L31.113 27L34.673 24.4C35.8134 23.5859 36.2859 22.1209 35.836 20.794ZM33.493 22.785L29.349 25.814C28.9999 26.0687 28.8538 26.5188 28.987 26.93L30.562 31.8C30.7255 32.3067 30.5435 32.8611 30.1114 33.1723C29.6794 33.4836 29.0959 33.4806 28.667 33.165L24.592 30.165C24.2397 29.9062 23.7603 29.9062 23.408 30.165L19.333 33.165C18.9043 33.4849 18.3177 33.4902 17.8832 33.1781C17.4488 32.866 17.2666 32.3084 17.433 31.8L19.013 26.93C19.1462 26.5188 19.0001 26.0687 18.651 25.814L14.507 22.785C14.0789 22.4715 13.9008 21.9184 14.0655 21.4141C14.2302 20.9097 14.7004 20.5683 15.231 20.568H20.331C20.7654 20.5679 21.1501 20.2875 21.283 19.874L22.833 15.043C22.9962 14.5357 23.4682 14.1919 24.001 14.1919C24.5338 14.1919 25.0058 14.5357 25.169 15.043L26.719 19.874C26.8519 20.2875 27.2366 20.5679 27.671 20.568H32.771C33.3016 20.5683 33.7718 20.9097 33.9365 21.4141C34.1012 21.9184 33.9231 22.4715 33.495 22.785H33.493Z" fill="#60B9F8"></path>
</svg>
