<?xml version="1.0" encoding="UTF-8"?>
<svg xmlns="http://www.w3.org/2000/svg" width="48" height="48" viewBox="0 0 48 48" fill="none">
  <rect width="48" height="48" rx="24" fill="white"></rect>
  <path fill-rule="evenodd" clip-rule="evenodd" d="M21.879 30.125L17.293 25.538C17.033 25.2869 16.9288 24.9151 17.0203 24.5655C17.1118 24.2159 17.3849 23.9428 17.7345 23.8513C18.0841 23.7598 18.4559 23.864 18.707 24.124L23 28.417V13C23 12.4477 23.4477 12 24 12C24.5523 12 25 12.4477 25 13V28.416L29.293 24.125C29.5441 23.865 29.9159 23.7608 30.2655 23.8523C30.6151 23.9438 30.8882 24.2169 30.9797 24.5665C31.0712 24.9161 30.967 25.2879 30.707 25.539L26.121 30.125C24.9479 31.2923 23.0521 31.2923 21.879 30.125ZM34 29C34 28.4477 34.4477 28 35 28C35.5523 28 36 28.4477 36 29V33C36 34.6569 34.6569 36 33 36H15C13.3431 36 12 34.6569 12 33V29C12 28.4477 12.4477 28 13 28C13.5523 28 14 28.4477 14 29V33C14 33.5523 14.4477 34 15 34H33C33.5523 34 34 33.5523 34 33V29Z" fill="#60B9F8"></path>
</svg>
