<?xml version="1.0" encoding="UTF-8"?>
<svg xmlns="http://www.w3.org/2000/svg" width="162" height="50" viewBox="0 0 162 50" fill="none">
  <path fill-rule="evenodd" clip-rule="evenodd" d="M0.709815 5.17328C0.709815 2.31616 2.96542 0 5.74785 0C8.53028 0 10.7859 2.31616 10.7859 5.17328V5.61837C10.7859 6.13832 10.3754 6.55983 9.86905 6.55983C9.36269 6.55983 8.9522 6.13832 8.9522 5.61837V5.17328C8.9522 3.35606 7.51757 1.88291 5.74785 1.88291C3.97814 1.88291 2.5435 3.35606 2.5435 5.17328V5.95744C2.5435 6.86879 3.26298 7.60758 4.1505 7.60758H13.4569C15.27 7.60758 16.7398 9.11683 16.7398 10.9786V11.753C16.7398 14.9566 14.2107 17.5536 11.0909 17.5536H5.64894C2.52912 17.5536 0 14.9566 0 11.753V10.8419C0 10.322 0.410485 9.90048 0.916844 9.90048C1.4232 9.90048 1.83369 10.322 1.83369 10.8419V11.753C1.83369 13.9167 3.54184 15.6707 5.64894 15.6707H11.0909C13.198 15.6707 14.9061 13.9167 14.9061 11.753V10.9786C14.9061 10.1567 14.2573 9.49049 13.4569 9.49049H4.1505C2.25026 9.49049 0.709815 7.90869 0.709815 5.95744V5.17328ZM5.21074 22.36C5.83144 22.36 6.33462 21.8434 6.33462 21.206C6.33462 20.5686 5.83144 20.052 5.21074 20.052C4.59005 20.052 4.08687 20.5686 4.08687 21.206C4.08687 21.8434 4.59005 22.36 5.21074 22.36ZM5.21074 24C6.71349 24 7.9317 22.7491 7.9317 21.206C7.9317 19.6629 6.71349 18.412 5.21074 18.412C3.708 18.412 2.48979 19.6629 2.48979 21.206C2.48979 22.7491 3.708 24 5.21074 24ZM12.8413 21.206C12.8413 21.8434 12.3381 22.36 11.7174 22.36C11.0967 22.36 10.5935 21.8434 10.5935 21.206C10.5935 20.5686 11.0967 20.052 11.7174 20.052C12.3381 20.052 12.8413 20.5686 12.8413 21.206ZM14.4384 21.206C14.4384 22.7491 13.2201 24 11.7174 24C10.2147 24 8.99645 22.7491 8.99645 21.206C8.99645 19.6629 10.2147 18.412 11.7174 18.412C13.2201 18.412 14.4384 19.6629 14.4384 21.206ZM13.5104 1.30593C12.905 1.30593 12.3348 1.45344 11.8306 1.71481C11.539 1.86599 11.1832 1.74578 11.036 1.44632C10.8888 1.14687 11.0059 0.781556 11.2975 0.630381C11.9632 0.285265 12.7156 0.0911508 13.5104 0.0911508C16.2248 0.0911508 18.4256 2.35018 18.4256 5.13717C18.4256 5.79259 18.3036 6.42023 18.081 6.99639C17.9606 7.30821 17.6168 7.46074 17.3131 7.33706C17.0094 7.21339 16.8609 6.86035 16.9813 6.54853C17.1497 6.11256 17.2426 5.63673 17.2426 5.13717C17.2426 3.02139 15.5717 1.30593 13.5104 1.30593ZM13.4334 3.49254C13.1538 3.49254 12.8919 3.56131 12.6616 3.68232C12.3708 3.83514 12.0144 3.71694 11.8656 3.41832C11.7168 3.11969 11.8319 2.75373 12.1227 2.60091C12.5162 2.39412 12.9624 2.27776 13.4334 2.27776C15.009 2.27776 16.2962 3.57805 16.2962 5.19456C16.2962 5.57287 16.2252 5.93569 16.0955 6.26889C15.9744 6.58041 15.6302 6.73208 15.3268 6.60765C15.0234 6.48321 14.8757 6.12981 14.9969 5.81828C15.0718 5.62586 15.1131 5.4158 15.1131 5.19456C15.1131 4.26016 14.3666 3.49254 13.4334 3.49254ZM13.2203 6.28652C13.743 6.28652 14.1667 5.85142 14.1667 5.31469C14.1667 4.77797 13.743 4.34287 13.2203 4.34287C12.6976 4.34287 12.2739 4.77797 12.2739 5.31469C12.2739 5.85142 12.6976 6.28652 13.2203 6.28652Z" fill="url(#paint0_linear_97_17409)"></path>
  <path d="M33.3111 20C32.1055 20 31.0701 19.789 30.2049 19.367C29.3539 18.945 28.5809 18.312 27.8859 17.4679L29.8007 15.5034C30.2404 16.1 30.751 16.5657 31.3325 16.9004C31.9141 17.2206 32.6232 17.3806 33.4601 17.3806C34.2118 17.3806 34.8075 17.2278 35.2472 16.9222C35.7011 16.6166 35.928 16.1946 35.928 15.6562C35.928 15.1905 35.8003 14.8122 35.545 14.5211C35.2897 14.2301 34.9493 13.9827 34.5238 13.779C34.1125 13.5753 33.6515 13.3934 33.1409 13.2333C32.6445 13.0587 32.141 12.8622 31.6304 12.6439C31.134 12.4256 30.673 12.1564 30.2475 11.8363C29.8362 11.5016 29.5028 11.0796 29.2475 10.5703C28.9922 10.0464 28.8646 9.39154 28.8646 8.60573C28.8646 7.6744 29.0844 6.88131 29.5241 6.22647C29.9638 5.57162 30.5666 5.06958 31.3325 4.72033C32.0984 4.37108 32.9636 4.19645 33.9281 4.19645C34.9493 4.19645 35.8713 4.39291 36.6939 4.78581C37.5165 5.17872 38.1903 5.68804 38.7151 6.31378L36.8003 8.27831C36.3606 7.78354 35.9067 7.41974 35.4387 7.1869C34.9848 6.95407 34.4671 6.83765 33.8856 6.83765C33.2189 6.83765 32.6941 6.96862 32.3112 7.23056C31.9282 7.4925 31.7368 7.87085 31.7368 8.36562C31.7368 8.78763 31.8644 9.1296 32.1197 9.39154C32.375 9.65348 32.7083 9.87904 33.1197 10.0682C33.5452 10.2574 34.0061 10.4393 34.5025 10.6139C35.0132 10.7885 35.5167 10.985 36.0131 11.2033C36.5237 11.4216 36.9847 11.7053 37.396 12.0546C37.8215 12.4038 38.1619 12.8549 38.4172 13.4079C38.6725 13.9463 38.8002 14.6157 38.8002 15.4161C38.8002 16.8422 38.3108 17.9627 37.3322 18.7776C36.3535 19.5925 35.0132 20 33.3111 20Z" fill="black"></path>
  <path d="M42.2965 19.7817V4.8513H45.0835V19.7817H42.2965ZM39.8923 11.749V9.23875H47.4876V11.749H39.8923Z" fill="black"></path>
  <path d="M49.055 19.7817V9.23875H51.8421V19.7817H49.055ZM51.8421 13.9536L50.7571 13.2115C50.8847 11.9163 51.2535 10.8977 51.8634 10.1555C52.4733 9.39882 53.3526 9.02046 54.5015 9.02046C54.9979 9.02046 55.4447 9.10778 55.8419 9.2824C56.239 9.44247 56.6007 9.71169 56.9269 10.09L55.1823 12.1419C55.0263 11.9673 54.8348 11.8363 54.6079 11.749C54.3951 11.6617 54.1469 11.618 53.8632 11.618C53.2675 11.618 52.7782 11.8145 52.3952 12.2074C52.0265 12.5857 51.8421 13.1678 51.8421 13.9536Z" fill="black"></path>
  <path d="M62.4445 20C61.4091 20 60.473 19.7599 59.6362 19.2797C58.8135 18.7849 58.154 18.1228 57.6576 17.2933C57.1753 16.4493 56.9342 15.5107 56.9342 14.4775C56.9342 13.4443 57.1753 12.5202 57.6576 11.7053C58.1398 10.8759 58.7993 10.221 59.6362 9.74079C60.473 9.24602 61.402 8.99864 62.4232 8.99864C63.4728 8.99864 64.4089 9.24602 65.2316 9.74079C66.0684 10.221 66.7279 10.8759 67.2102 11.7053C67.6924 12.5202 67.9335 13.4443 67.9335 14.4775C67.9335 15.5107 67.6924 16.4493 67.2102 17.2933C66.7279 18.1228 66.0684 18.7849 65.2316 19.2797C64.4089 19.7599 63.4799 20 62.4445 20ZM62.4232 17.337C62.948 17.337 63.409 17.2206 63.8061 16.9877C64.2175 16.7403 64.5295 16.4056 64.7422 15.9836C64.9692 15.5471 65.0826 15.0523 65.0826 14.4993C65.0826 13.9463 64.9692 13.4588 64.7422 13.0368C64.5153 12.6148 64.2033 12.2874 63.8061 12.0546C63.409 11.8072 62.948 11.6835 62.4232 11.6835C61.9126 11.6835 61.4588 11.8072 61.0616 12.0546C60.6645 12.2874 60.3524 12.6148 60.1255 13.0368C59.8986 13.4588 59.7851 13.9463 59.7851 14.4993C59.7851 15.0523 59.8986 15.5471 60.1255 15.9836C60.3524 16.4056 60.6645 16.7403 61.0616 16.9877C61.4588 17.2206 61.9126 17.337 62.4232 17.337Z" fill="black"></path>
  <path d="M69.7278 19.7817V4H72.5149V19.7817H69.7278Z" fill="black"></path>
  <path d="M74.9843 19.7817V4H77.7714V19.7817H74.9843Z" fill="black"></path>
  <path d="M85.1554 20C84.0775 20 83.1201 19.7672 82.2832 19.3015C81.4464 18.8213 80.7798 18.1664 80.2834 17.337C79.8011 16.5075 79.56 15.5616 79.56 14.4993C79.56 13.4516 79.794 12.5202 80.2621 11.7053C80.7443 10.8759 81.3968 10.221 82.2194 9.74079C83.0421 9.24602 83.9569 8.99864 84.9639 8.99864C85.9568 8.99864 86.8291 9.23147 87.5808 9.69714C88.3467 10.1482 88.9424 10.774 89.3679 11.5744C89.8076 12.3602 90.0275 13.2551 90.0275 14.2592C90.0275 14.4484 90.0133 14.6448 89.9849 14.8486C89.9707 15.0377 89.9353 15.256 89.8785 15.5034L81.2407 15.5252V13.3861L88.5807 13.3643L87.4531 14.2592C87.4248 13.6335 87.3113 13.1096 87.1127 12.6876C86.9283 12.2656 86.6518 11.9454 86.283 11.7271C85.9284 11.4943 85.4887 11.3779 84.9639 11.3779C84.4108 11.3779 83.9285 11.5089 83.5172 11.7708C83.1059 12.0182 82.7868 12.3747 82.5598 12.8404C82.3471 13.2915 82.2407 13.8299 82.2407 14.4557C82.2407 15.096 82.3542 15.6562 82.5811 16.1364C82.8222 16.6021 83.1626 16.9659 83.6023 17.2278C84.042 17.4752 84.5526 17.5989 85.1341 17.5989C85.6589 17.5989 86.1341 17.5116 86.5596 17.337C86.9851 17.1478 87.3539 16.8713 87.6659 16.5075L89.3041 18.1883C88.8077 18.7849 88.1978 19.236 87.4744 19.5416C86.7652 19.8472 85.9922 20 85.1554 20Z" fill="black"></path>
  <path d="M91.7511 19.7817V9.23875H94.5381V19.7817H91.7511ZM94.5381 13.9536L93.4531 13.2115C93.5808 11.9163 93.9495 10.8977 94.5594 10.1555C95.1693 9.39882 96.0487 9.02046 97.1976 9.02046C97.694 9.02046 98.1408 9.10778 98.5379 9.2824C98.935 9.44247 99.2967 9.71169 99.6229 10.09L97.8784 12.1419C97.7224 11.9673 97.5309 11.8363 97.3039 11.749C97.0912 11.6617 96.843 11.618 96.5593 11.618C95.9636 11.618 95.4743 11.8145 95.0913 12.2074C94.7225 12.5857 94.5381 13.1678 94.5381 13.9536Z" fill="black"></path>
  <path d="M107.557 14.0846V11.6617H111.025C111.478 11.6617 111.89 11.5671 112.258 11.3779C112.627 11.1887 112.918 10.9195 113.131 10.5703C113.344 10.2065 113.45 9.7699 113.45 9.26057C113.45 8.7658 113.344 8.33652 113.131 7.97272C112.918 7.60891 112.627 7.33242 112.258 7.14325C111.89 6.95407 111.478 6.85948 111.025 6.85948H107.557V4.43656H111.322C112.273 4.43656 113.124 4.63302 113.875 5.02592C114.641 5.41883 115.244 5.97908 115.684 6.70669C116.124 7.41974 116.343 8.27103 116.343 9.26057C116.343 10.2501 116.124 11.1087 115.684 11.8363C115.244 12.5493 114.641 13.1023 113.875 13.4952C113.124 13.8881 112.273 14.0846 111.322 14.0846H107.557ZM105.429 19.7817V4.43656H108.323V19.7817H105.429Z" fill="black"></path>
  <path d="M122.061 20C121.125 20 120.281 19.7599 119.529 19.2797C118.778 18.7995 118.189 18.1446 117.763 17.3151C117.338 16.4857 117.125 15.5543 117.125 14.5211C117.125 13.4734 117.338 12.5348 117.763 11.7053C118.189 10.8759 118.778 10.221 119.529 9.74079C120.281 9.26057 121.125 9.02046 122.061 9.02046C122.799 9.02046 123.458 9.17326 124.04 9.47885C124.621 9.78445 125.082 10.2137 125.423 10.7667C125.777 11.3051 125.969 11.9163 125.997 12.6003V16.3984C125.969 17.0969 125.777 17.7153 125.423 18.2538C125.082 18.7922 124.621 19.2215 124.04 19.5416C123.458 19.8472 122.799 20 122.061 20ZM122.572 17.3588C123.352 17.3588 123.983 17.0969 124.465 16.573C124.947 16.0346 125.189 15.3433 125.189 14.4993C125.189 13.9463 125.075 13.4588 124.848 13.0368C124.635 12.6003 124.33 12.2656 123.933 12.0327C123.55 11.7854 123.096 11.6617 122.572 11.6617C122.061 11.6617 121.607 11.7854 121.21 12.0327C120.827 12.2656 120.522 12.6003 120.295 13.0368C120.082 13.4588 119.976 13.9463 119.976 14.4993C119.976 15.0668 120.082 15.5689 120.295 16.0055C120.522 16.4275 120.827 16.7622 121.21 17.0095C121.607 17.2424 122.061 17.3588 122.572 17.3588ZM125.04 19.7817V16.9441L125.486 14.3683L125.04 11.8363V9.23875H127.805V19.7817H125.04Z" fill="black"></path>
  <path d="M131.782 19.7817V4.8513H134.569V19.7817H131.782ZM129.377 11.749V9.23875H136.973V11.749H129.377Z" fill="black"></path>
  <path d="M138.54 19.7817V9.23875H141.327V19.7817H138.54ZM141.327 13.9536L140.242 13.2115C140.37 11.9163 140.739 10.8977 141.348 10.1555C141.958 9.39882 142.838 9.02046 143.987 9.02046C144.483 9.02046 144.93 9.10778 145.327 9.2824C145.724 9.44247 146.086 9.71169 146.412 10.09L144.667 12.1419C144.511 11.9673 144.32 11.8363 144.093 11.749C143.88 11.6617 143.632 11.618 143.348 11.618C142.753 11.618 142.263 11.8145 141.88 12.2074C141.512 12.5857 141.327 13.1678 141.327 13.9536Z" fill="black"></path>
  <path d="M151.93 20C150.894 20 149.958 19.7599 149.121 19.2797C148.299 18.7849 147.639 18.1228 147.143 17.2933C146.66 16.4493 146.419 15.5107 146.419 14.4775C146.419 13.4443 146.66 12.5202 147.143 11.7053C147.625 10.8759 148.284 10.221 149.121 9.74079C149.958 9.24602 150.887 8.99864 151.908 8.99864C152.958 8.99864 153.894 9.24602 154.717 9.74079C155.554 10.221 156.213 10.8759 156.695 11.7053C157.178 12.5202 157.419 13.4443 157.419 14.4775C157.419 15.5107 157.178 16.4493 156.695 17.2933C156.213 18.1228 155.554 18.7849 154.717 19.2797C153.894 19.7599 152.965 20 151.93 20ZM151.908 17.337C152.433 17.337 152.894 17.2206 153.291 16.9877C153.703 16.7403 154.015 16.4056 154.227 15.9836C154.454 15.5471 154.568 15.0523 154.568 14.4993C154.568 13.9463 154.454 13.4588 154.227 13.0368C154 12.6148 153.688 12.2874 153.291 12.0546C152.894 11.8072 152.433 11.6835 151.908 11.6835C151.398 11.6835 150.944 11.8072 150.547 12.0546C150.15 12.2874 149.838 12.6148 149.611 13.0368C149.384 13.4588 149.27 13.9463 149.27 14.4993C149.27 15.0523 149.384 15.5471 149.611 15.9836C149.838 16.4056 150.15 16.7403 150.547 16.9877C150.944 17.2206 151.398 17.337 151.908 17.337Z" fill="black"></path>
  <path d="M159.213 19.7817V4H162V19.7817H159.213Z" fill="black"></path>
  <defs>
    <linearGradient id="paint0_linear_97_17409" x1="26.7211" y1="41.44" x2="7.78884" y2="44.3822" gradientUnits="userSpaceOnUse">
      <stop stop-color="#FFB830"></stop>
      <stop offset="1" stop-color="#FF8F28"></stop>
    </linearGradient>
  </defs>
</svg>
